<svg width="120" height="47" viewBox="0 0 120 47" fill="none" xmlns="http://www.w3.org/2000/svg">
<ellipse cx="25.8198" cy="16.6276" rx="7.00197" ry="7.00159" fill="white"/>
<path fill-rule="evenodd" clip-rule="evenodd" d="M17.5048 5.68799C7.83718 5.68803 0 13.5248 0 23.192C0 32.8591 7.83718 40.6959 17.5048 40.6959V5.68799Z" fill="white"/>
<path d="M70.9519 11.5379L70.9106 34.9143H64.83V31.7679C63.2125 33.9757 60.7921 35.422 57.5216 35.422C51.3997 35.4279 46.8481 30.4102 46.8481 23.2261C46.8481 16.042 51.4823 11.0303 57.4743 11.0303C60.7921 11.0303 63.2538 12.5592 64.8714 14.8142V11.5438H70.9519V11.5379ZM64.8714 23.2261C64.8714 19.4009 62.2797 16.8094 58.8794 16.8094C55.479 16.8094 52.97 19.4009 52.97 23.2261C52.97 27.0514 55.5203 29.6428 58.8794 29.6428C62.2384 29.6428 64.8714 27.0927 64.8714 23.2261Z" fill="white"/>
<path d="M75.7312 0H81.8579V35.008H75.7312V0Z" fill="white"/>
<path d="M86.6714 0H92.7981V35.008H86.6714V0Z" fill="white"/>
<path d="M120 11.5371L104.438 46.3844H97.9741L104.438 31.8143L95.4238 11.5371H101.888L107.668 25.2265L113.488 11.5371H119.994H120Z" fill="white"/>
</svg>
