<svg width="84" height="33" viewBox="0 0 84 33" fill="none" xmlns="http://www.w3.org/2000/svg">
<g clip-path="url(#clip0_5190_4767)">
<path d="M18.0733 16.5405C20.7802 16.5405 22.9746 14.3462 22.9746 11.6394C22.9746 8.93258 20.7802 6.73828 18.0733 6.73828C15.3663 6.73828 13.1719 8.93258 13.1719 11.6394C13.1719 14.3462 15.3663 16.5405 18.0733 16.5405Z" fill="white"/>
<path fill-rule="evenodd" clip-rule="evenodd" d="M12.2534 3.98145C5.48603 3.98147 0 9.46721 0 16.2343C0 23.0012 5.48603 28.487 12.2534 28.487V3.98145Z" fill="white"/>
<path d="M49.6656 8.07651L49.6367 24.44H45.3803V22.2375C44.2481 23.783 42.5538 24.7954 40.2644 24.7954C35.9791 24.7995 32.793 21.2871 32.793 16.2583C32.793 11.2294 36.0369 7.72119 40.2313 7.72119C42.5538 7.72119 44.277 8.79142 45.4093 10.3699V8.08064H49.6656V8.07651ZM45.4093 16.2583C45.4093 13.5806 43.5951 11.7666 41.2149 11.7666C38.8346 11.7666 37.0783 13.5806 37.0783 16.2583C37.0783 18.936 38.8635 20.7499 41.2149 20.7499C43.5662 20.7499 45.4093 18.9649 45.4093 16.2583Z" fill="white"/>
<path d="M53.0117 0H57.3004V24.5056H53.0117V0Z" fill="white"/>
<path d="M60.6699 0H64.9586V24.5056H60.6699V0Z" fill="white"/>
<path d="M84.0002 8.07617L73.1068 32.4693H68.5821L73.1068 22.2702L66.7969 8.07617H71.3218L75.3678 17.6588L79.4418 8.07617H83.996H84.0002Z" fill="white"/>
</g>
<defs>
<clipPath id="clip0_5190_4767">
<rect width="84" height="32.9" fill="white"/>
</clipPath>
</defs>
</svg>
