<svg width="32" height="32" viewBox="0 0 32 32" fill="none" xmlns="http://www.w3.org/2000/svg">
<rect width="32" height="32" rx="16" fill="#1F1F1F"/>
<path d="M15.9998 6C12.9322 6 10.4027 8.24777 9.98235 11.2175C9.97778 11.2178 9.97419 11.2182 9.96702 11.2175L9.95691 11.3822C9.9305 11.6137 9.91289 11.8478 9.91289 12.0869V12.9566C8.95221 12.9566 8.17383 13.7392 8.17383 14.6956V24.2609C8.17383 25.2174 8.95254 26 9.91289 26H22.087C23.048 26 23.826 25.2174 23.826 24.2609V14.6956C23.826 13.7392 23.0476 12.9566 22.087 12.9566V12.0869C22.087 11.8475 22.0693 11.6137 22.0429 11.3822L22.0328 11.2175C22.0257 11.2182 22.0221 11.2178 22.0175 11.2175C21.5972 8.24777 19.0673 6 15.9998 6ZM15.9998 8.60875C16.2398 8.60875 16.4749 8.63386 16.7012 8.68017C17.8334 8.913 18.7647 9.69758 19.2046 10.7368C19.292 10.9439 19.3605 11.1604 19.4068 11.3858C19.4534 11.6127 19.4782 11.8469 19.4782 12.0872V12.9569H12.5216V12.0872C12.5216 11.8472 12.5569 11.6072 12.6032 11.3806C12.6687 11.0593 12.789 10.7606 12.9361 10.4786C12.9808 10.3941 13.0209 10.3074 13.0721 10.2272C13.1249 10.1434 13.1859 10.0664 13.2452 9.9878C13.3163 9.89454 13.3894 9.80323 13.4696 9.7178C13.526 9.65747 13.5857 9.60073 13.6463 9.54464C13.7461 9.45236 13.8505 9.36529 13.9607 9.28475C14.0204 9.24105 14.08 9.19703 14.1423 9.15724C14.2636 9.07996 14.3918 9.01376 14.5229 8.9518C14.5852 8.92213 14.6455 8.88919 14.7097 8.86343C14.8513 8.80637 14.9996 8.7656 15.1496 8.72745C15.2122 8.71147 15.2722 8.68897 15.3365 8.67658C15.5517 8.63484 15.7731 8.60875 16.0004 8.60875H15.9998Z" fill="white"/>
</svg>
