<svg width="400" height="408" viewBox="0 0 400 408" fill="none" xmlns="http://www.w3.org/2000/svg">
<path d="M161.397 196.956C160.034 196.956 158.827 196.67 157.772 196.1C156.717 195.53 155.887 194.753 155.275 193.771C154.664 192.789 154.359 191.674 154.359 190.419C154.359 189.164 154.664 188.052 155.275 187.067C155.883 186.084 156.714 185.308 157.759 184.738C158.805 184.167 159.993 183.882 161.324 183.882C162.655 183.882 163.751 184.085 164.806 184.488C165.858 184.893 166.704 185.451 167.338 186.164L165.506 188.54C165.205 188.223 164.844 187.935 164.426 187.672C164.004 187.409 163.554 187.206 163.07 187.054C162.585 186.905 162.091 186.829 161.584 186.829C160.823 186.829 160.148 186.984 159.562 187.292C158.976 187.599 158.52 188.024 158.196 188.562C157.87 189.101 157.708 189.719 157.708 190.416C157.708 191.113 157.876 191.683 158.209 192.222C158.542 192.76 159.001 193.188 159.587 193.505C160.174 193.822 160.839 193.98 161.584 193.98C162.17 193.98 162.696 193.917 163.165 193.79C163.63 193.664 164.065 193.489 164.461 193.267C164.857 193.046 165.205 192.792 165.506 192.507L167.338 194.836C166.641 195.438 165.782 195.942 164.758 196.344C163.738 196.746 162.617 196.949 161.397 196.949V196.956Z" fill="white"/>
<path d="M175.392 196.956C173.95 196.956 172.67 196.674 171.555 196.113C170.44 195.552 169.559 194.779 168.919 193.797C168.276 192.814 167.956 191.69 167.956 190.422C167.956 189.155 168.276 188.03 168.919 187.048C169.559 186.065 170.44 185.292 171.555 184.731C172.673 184.171 173.95 183.889 175.392 183.889C176.834 183.889 178.085 184.171 179.194 184.731C180.303 185.295 181.178 186.065 181.821 187.048C182.464 188.03 182.784 189.155 182.784 190.422C182.784 191.69 182.464 192.814 181.821 193.797C181.178 194.779 180.303 195.552 179.194 196.113C178.085 196.677 176.818 196.956 175.392 196.956ZM175.392 194.009C176.137 194.009 176.808 193.854 177.414 193.546C178.016 193.239 178.494 192.808 178.852 192.263C179.21 191.718 179.378 191.103 179.362 190.422C179.378 189.725 179.207 189.104 178.852 188.556C178.497 188.011 178.016 187.58 177.414 187.273C176.812 186.965 176.137 186.81 175.392 186.81C174.647 186.81 173.941 186.968 173.323 187.285C172.705 187.602 172.22 188.027 171.872 188.556C171.523 189.088 171.359 189.709 171.371 190.422C171.355 191.103 171.52 191.718 171.872 192.263C172.22 192.808 172.702 193.239 173.323 193.546C173.941 193.857 174.628 194.009 175.392 194.009Z" fill="white"/>
<path d="M184.349 196.718V184.148H187.603L187.676 186.927L186.986 186.832C187.176 186.452 187.439 186.087 187.771 185.739C188.104 185.39 188.497 185.083 188.947 184.814C189.4 184.544 189.888 184.326 190.42 184.161C190.949 183.996 191.517 183.911 192.119 183.911C192.831 183.911 193.484 184.022 194.08 184.243C194.676 184.465 195.173 184.817 195.579 185.302C195.981 185.786 196.279 186.414 196.469 187.19L195.756 187.095L195.946 186.715C196.168 186.35 196.456 186.005 196.814 185.682C197.169 185.359 197.578 185.061 198.037 184.791C198.497 184.522 198.988 184.31 199.511 184.151C200.034 183.993 200.572 183.914 201.127 183.914C202.283 183.914 203.218 184.132 203.931 184.567C204.644 185.004 205.166 185.615 205.499 186.407C205.832 187.2 205.997 188.128 205.997 189.186V196.721H202.622V189.522C202.622 188.952 202.533 188.467 202.359 188.071C202.185 187.675 201.922 187.371 201.577 187.155C201.228 186.943 200.769 186.835 200.198 186.835C199.723 186.835 199.283 186.911 198.88 187.06C198.475 187.212 198.12 187.421 197.809 187.691C197.499 187.96 197.261 188.277 197.096 188.641C196.928 189.006 196.846 189.386 196.846 189.782V196.721H193.449V189.497C193.449 188.958 193.354 188.486 193.164 188.084C192.974 187.681 192.689 187.371 192.309 187.158C191.928 186.946 191.437 186.838 190.835 186.838C190.376 186.838 189.961 186.918 189.587 187.076C189.213 187.234 188.89 187.45 188.611 187.719C188.332 187.989 188.12 188.283 187.971 188.597C187.819 188.914 187.746 189.24 187.746 189.573V196.727H184.349V196.718Z" fill="white"/>
<path d="M208.256 201.312V184.148H211.51L211.605 186.975L211.009 186.762C211.12 186.271 211.421 185.812 211.912 185.384C212.403 184.956 213.021 184.605 213.766 184.326C214.51 184.05 215.303 183.911 216.142 183.911C217.41 183.911 218.515 184.193 219.457 184.753C220.398 185.317 221.139 186.084 221.678 187.06C222.216 188.036 222.486 189.155 222.486 190.422C222.486 191.689 222.216 192.792 221.678 193.774C221.139 194.756 220.391 195.53 219.431 196.09C218.471 196.654 217.375 196.933 216.139 196.933C215.284 196.933 214.476 196.787 213.715 196.493C212.955 196.201 212.324 195.824 211.827 195.365C211.326 194.905 211.006 194.43 210.864 193.939L211.646 193.606V201.315H208.25L208.256 201.312ZM215.385 194.034C216.145 194.034 216.811 193.885 217.381 193.581C217.951 193.28 218.398 192.855 218.725 192.31C219.048 191.762 219.213 191.135 219.213 190.422C219.213 189.709 219.054 189.085 218.737 188.546C218.42 188.008 217.977 187.589 217.407 187.285C216.836 186.984 216.161 186.835 215.385 186.835C214.609 186.835 213.956 186.981 213.376 187.276C212.796 187.57 212.346 187.989 212.02 188.534C211.694 189.082 211.532 189.709 211.532 190.422C211.532 191.135 211.694 191.765 212.02 192.31C212.343 192.855 212.796 193.28 213.376 193.581C213.953 193.882 214.625 194.034 215.385 194.034Z" fill="white"/>
<path d="M230.001 196.956C228.765 196.956 227.676 196.674 226.734 196.113C225.79 195.552 225.055 194.779 224.523 193.797C223.991 192.815 223.728 191.68 223.728 190.397C223.728 189.114 224 188.005 224.548 187.023C225.093 186.04 225.847 185.274 226.804 184.716C227.761 184.161 228.867 183.886 230.118 183.886C230.847 183.886 231.519 183.981 232.14 184.171C232.758 184.361 233.296 184.618 233.756 184.944C234.215 185.27 234.592 185.625 234.884 186.015C235.175 186.405 235.362 186.81 235.442 187.238L234.681 187.213V184.149H238.008V196.718H234.634V193.512L235.346 193.581C235.251 193.993 235.052 194.399 234.751 194.795C234.45 195.191 234.057 195.552 233.575 195.875C233.09 196.202 232.546 196.462 231.937 196.658C231.326 196.854 230.682 196.956 230.001 196.956ZM230.904 194.034C231.665 194.034 232.333 193.886 232.913 193.581C233.49 193.28 233.94 192.856 234.257 192.311C234.573 191.763 234.732 191.126 234.732 190.397C234.732 189.668 234.573 189.082 234.257 188.543C233.94 188.005 233.493 187.577 232.913 187.26C232.333 186.943 231.665 186.785 230.904 186.785C230.144 186.785 229.478 186.943 228.908 187.26C228.338 187.577 227.891 188.005 227.565 188.543C227.238 189.082 227.077 189.7 227.077 190.397C227.077 191.094 227.238 191.763 227.565 192.311C227.888 192.856 228.338 193.28 228.908 193.581C229.478 193.882 230.144 194.034 230.904 194.034Z" fill="white"/>
<path d="M240.362 196.718V184.149H243.616L243.689 187.095L242.881 187.333C243.103 186.731 243.464 186.17 243.962 185.644C244.462 185.121 245.071 184.697 245.79 184.374C246.512 184.051 247.276 183.886 248.084 183.886C249.177 183.886 250.093 184.098 250.828 184.529C251.566 184.957 252.124 185.559 252.504 186.335C252.884 187.111 253.074 188.046 253.074 189.139V196.718H249.7V189.589C249.7 188.971 249.589 188.458 249.367 188.043C249.145 187.631 248.825 187.317 248.404 187.105C247.983 186.893 247.498 186.785 246.943 186.785C246.468 186.785 246.037 186.867 245.647 187.035C245.258 187.203 244.922 187.419 244.637 187.688C244.351 187.957 244.13 188.255 243.971 188.578C243.813 188.905 243.734 189.241 243.734 189.589V196.718H240.359H240.362Z" fill="white"/>
<path d="M257.209 181.484C256.544 181.484 256.034 181.322 255.676 180.996C255.321 180.673 255.14 180.217 255.14 179.63C255.14 179.092 255.321 178.651 255.685 178.312C256.05 177.973 256.557 177.802 257.206 177.802C257.856 177.802 258.36 177.964 258.714 178.29C259.069 178.617 259.25 179.063 259.25 179.634C259.25 180.172 259.066 180.616 258.705 180.964C258.341 181.313 257.84 181.487 257.209 181.487V181.484ZM255.521 196.718V184.149H258.895V196.718H255.521Z" fill="white"/>
<path d="M268.214 196.956C266.772 196.956 265.492 196.674 264.377 196.113C263.261 195.552 262.38 194.779 261.74 193.797C261.097 192.814 260.777 191.69 260.777 190.422C260.777 189.155 261.097 188.03 261.74 187.048C262.38 186.065 263.261 185.292 264.377 184.731C265.495 184.171 266.772 183.889 268.214 183.889C269.655 183.889 270.907 184.171 272.016 184.731C273.125 185.295 273.999 186.065 274.643 187.048C275.286 188.03 275.606 189.155 275.606 190.422C275.606 191.69 275.286 192.814 274.643 193.797C273.999 194.779 273.125 195.552 272.016 196.113C270.907 196.677 269.639 196.956 268.214 196.956ZM268.214 194.009C268.958 194.009 269.63 193.854 270.235 193.546C270.837 193.239 271.316 192.808 271.674 192.263C272.032 191.718 272.2 191.103 272.184 190.422C272.2 189.725 272.028 189.104 271.674 188.556C271.319 188.011 270.837 187.58 270.235 187.273C269.633 186.965 268.958 186.81 268.214 186.81C267.469 186.81 266.762 186.968 266.145 187.285C265.527 187.602 265.042 188.027 264.693 188.556C264.345 189.088 264.18 189.709 264.193 190.422C264.177 191.103 264.342 191.718 264.693 192.263C265.042 192.808 265.524 193.239 266.145 193.546C266.762 193.857 267.45 194.009 268.214 194.009Z" fill="white"/>
<path d="M277.288 196.718V184.149H280.542L280.615 187.095L279.807 187.333C280.029 186.731 280.39 186.17 280.888 185.644C281.388 185.121 281.996 184.697 282.716 184.374C283.438 184.051 284.202 183.886 285.01 183.886C286.103 183.886 287.019 184.098 287.754 184.529C288.492 184.957 289.05 185.559 289.43 186.335C289.81 187.111 290 188.046 290 189.139V196.718H286.626V189.589C286.626 188.971 286.515 188.458 286.293 188.043C286.071 187.631 285.751 187.317 285.33 187.105C284.908 186.893 284.424 186.785 283.869 186.785C283.394 186.785 282.963 186.867 282.573 187.035C282.183 187.203 281.848 187.419 281.562 187.688C281.277 187.957 281.055 188.255 280.897 188.578C280.739 188.905 280.659 189.241 280.659 189.589V196.718H277.285H277.288Z" fill="white"/>
<rect x="110" y="173.157" width="31.6851" height="31.6851" rx="15.8426" fill="url(#paint0_radial_4321_320473)"/>
<path fill-rule="evenodd" clip-rule="evenodd" d="M141.066 184.597C141.469 185.995 141.685 187.472 141.685 188.999C141.685 192.395 140.617 195.54 138.799 198.119L128.071 187.39L141.066 184.597Z" fill="url(#paint1_linear_4321_320473)"/>
<rect x="125.347" y="173.157" width="16.3376" height="16.3376" rx="8.16882" fill="url(#paint2_radial_4321_320473)"/>
<path d="M103.506 241.66H104.918L107.742 246.413H107.862L110.685 241.66H112.097L108.418 247.646V251.842H107.185V247.646L103.506 241.66ZM115.555 252.001C114.866 252.001 114.261 251.837 113.74 251.509C113.223 251.181 112.819 250.722 112.527 250.132C112.239 249.542 112.095 248.853 112.095 248.064C112.095 247.268 112.239 246.574 112.527 245.981C112.819 245.388 113.223 244.927 113.74 244.599C114.261 244.271 114.866 244.106 115.555 244.106C116.244 244.106 116.848 244.271 117.365 244.599C117.885 244.927 118.289 245.388 118.578 245.981C118.869 246.574 119.015 247.268 119.015 248.064C119.015 248.853 118.869 249.542 118.578 250.132C118.289 250.722 117.885 251.181 117.365 251.509C116.848 251.837 116.244 252.001 115.555 252.001ZM115.555 250.947C116.079 250.947 116.51 250.813 116.848 250.545C117.186 250.276 117.436 249.923 117.598 249.486C117.761 249.048 117.842 248.574 117.842 248.064C117.842 247.553 117.761 247.078 117.598 246.637C117.436 246.196 117.186 245.84 116.848 245.568C116.51 245.296 116.079 245.16 115.555 245.16C115.031 245.16 114.6 245.296 114.262 245.568C113.924 245.84 113.674 246.196 113.512 246.637C113.349 247.078 113.268 247.553 113.268 248.064C113.268 248.574 113.349 249.048 113.512 249.486C113.674 249.923 113.924 250.276 114.262 250.545C114.6 250.813 115.031 250.947 115.555 250.947ZM125.619 248.72V244.206H126.792V251.842H125.619V250.55H125.539C125.36 250.937 125.082 251.267 124.704 251.539C124.326 251.807 123.849 251.942 123.272 251.942C122.795 251.942 122.371 251.837 121.999 251.629C121.628 251.416 121.337 251.098 121.124 250.674C120.912 250.246 120.806 249.708 120.806 249.058V244.206H121.98V248.979C121.98 249.535 122.135 249.98 122.447 250.311C122.762 250.642 123.163 250.808 123.65 250.808C123.942 250.808 124.238 250.734 124.54 250.584C124.845 250.435 125.1 250.207 125.306 249.898C125.514 249.59 125.619 249.197 125.619 248.72ZM128.941 251.842V244.206H130.075V245.359H130.154C130.293 244.981 130.545 244.675 130.91 244.44C131.274 244.204 131.685 244.087 132.143 244.087C132.229 244.087 132.337 244.088 132.466 244.092C132.595 244.095 132.693 244.1 132.759 244.106V245.3C132.719 245.29 132.628 245.275 132.486 245.255C132.347 245.232 132.199 245.22 132.043 245.22C131.672 245.22 131.341 245.298 131.049 245.454C130.761 245.606 130.532 245.818 130.363 246.09C130.197 246.359 130.114 246.665 130.114 247.01V251.842H128.941ZM143.815 244.206C143.755 243.702 143.513 243.311 143.089 243.033C142.665 242.754 142.144 242.615 141.528 242.615C141.077 242.615 140.683 242.688 140.345 242.834C140.01 242.98 139.748 243.18 139.559 243.435C139.374 243.691 139.281 243.981 139.281 244.305C139.281 244.577 139.345 244.811 139.475 245.006C139.607 245.199 139.776 245.359 139.982 245.489C140.187 245.615 140.403 245.719 140.628 245.802C140.853 245.881 141.061 245.946 141.249 245.996L142.284 246.274C142.549 246.344 142.844 246.44 143.169 246.562C143.497 246.685 143.81 246.852 144.108 247.065C144.41 247.273 144.658 247.542 144.854 247.87C145.049 248.198 145.147 248.601 145.147 249.078C145.147 249.628 145.003 250.125 144.715 250.57C144.43 251.014 144.012 251.367 143.462 251.629C142.915 251.89 142.25 252.021 141.468 252.021C140.739 252.021 140.108 251.904 139.574 251.668C139.044 251.433 138.626 251.105 138.321 250.684C138.02 250.263 137.849 249.774 137.809 249.217H139.082C139.115 249.602 139.244 249.92 139.47 250.172C139.698 250.42 139.987 250.606 140.335 250.729C140.686 250.848 141.064 250.908 141.468 250.908C141.939 250.908 142.361 250.831 142.736 250.679C143.11 250.523 143.407 250.308 143.626 250.033C143.845 249.754 143.954 249.429 143.954 249.058C143.954 248.72 143.86 248.445 143.671 248.233C143.482 248.021 143.233 247.848 142.925 247.716C142.617 247.583 142.284 247.467 141.926 247.368L140.673 247.01C139.877 246.781 139.248 246.455 138.784 246.03C138.32 245.606 138.088 245.051 138.088 244.365C138.088 243.795 138.242 243.298 138.55 242.874C138.861 242.446 139.279 242.115 139.803 241.879C140.33 241.641 140.918 241.521 141.568 241.521C142.224 241.521 142.807 241.639 143.318 241.874C143.828 242.106 144.232 242.424 144.531 242.829C144.832 243.233 144.991 243.692 145.008 244.206H143.815ZM148.189 247.249V251.842H147.015V241.66H148.189V245.399H148.288C148.467 245.005 148.735 244.691 149.093 244.459C149.455 244.224 149.935 244.106 150.535 244.106C151.056 244.106 151.511 244.211 151.902 244.42C152.293 244.625 152.597 244.942 152.812 245.369C153.031 245.794 153.14 246.334 153.14 246.99V251.842H151.967V247.07C151.967 246.463 151.81 245.994 151.495 245.663C151.183 245.328 150.751 245.16 150.197 245.16C149.813 245.16 149.468 245.242 149.163 245.404C148.861 245.566 148.623 245.803 148.447 246.115C148.275 246.427 148.189 246.804 148.189 247.249ZM158.389 252.001C157.7 252.001 157.095 251.837 156.574 251.509C156.057 251.181 155.653 250.722 155.361 250.132C155.073 249.542 154.929 248.853 154.929 248.064C154.929 247.268 155.073 246.574 155.361 245.981C155.653 245.388 156.057 244.927 156.574 244.599C157.095 244.271 157.7 244.106 158.389 244.106C159.078 244.106 159.682 244.271 160.199 244.599C160.719 244.927 161.123 245.388 161.412 245.981C161.703 246.574 161.849 247.268 161.849 248.064C161.849 248.853 161.703 249.542 161.412 250.132C161.123 250.722 160.719 251.181 160.199 251.509C159.682 251.837 159.078 252.001 158.389 252.001ZM158.389 250.947C158.913 250.947 159.344 250.813 159.682 250.545C160.02 250.276 160.27 249.923 160.432 249.486C160.595 249.048 160.676 248.574 160.676 248.064C160.676 247.553 160.595 247.078 160.432 246.637C160.27 246.196 160.02 245.84 159.682 245.568C159.344 245.296 158.913 245.16 158.389 245.16C157.865 245.16 157.434 245.296 157.096 245.568C156.758 245.84 156.508 246.196 156.346 246.637C156.183 247.078 156.102 247.553 156.102 248.064C156.102 248.574 156.183 249.048 156.346 249.486C156.508 249.923 156.758 250.276 157.096 250.545C157.434 250.813 157.865 250.947 158.389 250.947ZM163.64 251.842V244.206H164.774V245.359H164.853C164.993 244.981 165.244 244.675 165.609 244.44C165.974 244.204 166.385 244.087 166.842 244.087C166.928 244.087 167.036 244.088 167.165 244.092C167.294 244.095 167.392 244.1 167.458 244.106V245.3C167.419 245.29 167.328 245.275 167.185 245.255C167.046 245.232 166.898 245.22 166.743 245.22C166.371 245.22 166.04 245.298 165.748 245.454C165.46 245.606 165.231 245.818 165.062 246.09C164.896 246.359 164.814 246.665 164.814 247.01V251.842H163.64ZM172.649 244.206V245.2H168.691V244.206H172.649ZM169.845 242.376H171.018V249.655C171.018 249.986 171.066 250.235 171.162 250.401C171.262 250.563 171.388 250.672 171.54 250.729C171.696 250.782 171.86 250.808 172.032 250.808C172.162 250.808 172.268 250.802 172.35 250.788C172.433 250.772 172.5 250.758 172.549 250.749L172.788 251.803C172.708 251.832 172.597 251.862 172.455 251.892C172.312 251.925 172.132 251.942 171.913 251.942C171.582 251.942 171.257 251.87 170.939 251.728C170.624 251.585 170.362 251.368 170.153 251.077C169.948 250.785 169.845 250.417 169.845 249.973V242.376ZM177.434 252.001C176.718 252.001 176.102 251.832 175.585 251.494C175.067 251.156 174.67 250.691 174.391 250.097C174.113 249.504 173.974 248.826 173.974 248.064C173.974 247.288 174.116 246.604 174.401 246.011C174.69 245.414 175.091 244.948 175.604 244.614C176.121 244.276 176.725 244.106 177.414 244.106C177.951 244.106 178.435 244.206 178.866 244.405C179.297 244.604 179.65 244.882 179.925 245.24C180.2 245.598 180.371 246.016 180.437 246.493H179.263C179.174 246.145 178.975 245.837 178.667 245.568C178.362 245.296 177.951 245.16 177.434 245.16C176.977 245.16 176.576 245.28 176.231 245.518C175.889 245.754 175.623 246.087 175.43 246.518C175.241 246.945 175.147 247.447 175.147 248.024C175.147 248.614 175.24 249.128 175.425 249.565C175.614 250.003 175.879 250.343 176.221 250.584C176.566 250.826 176.97 250.947 177.434 250.947C177.739 250.947 178.016 250.894 178.264 250.788C178.513 250.682 178.723 250.53 178.896 250.331C179.068 250.132 179.191 249.893 179.263 249.615H180.437C180.371 250.066 180.206 250.472 179.945 250.833C179.686 251.191 179.343 251.476 178.915 251.688C178.491 251.897 177.997 252.001 177.434 252.001ZM186.964 248.72V244.206H188.138V251.842H186.964V250.55H186.885C186.706 250.937 186.428 251.267 186.05 251.539C185.672 251.807 185.195 251.942 184.618 251.942C184.141 251.942 183.716 251.837 183.345 251.629C182.974 251.416 182.682 251.098 182.47 250.674C182.258 250.246 182.152 249.708 182.152 249.058V244.206H183.325V248.979C183.325 249.535 183.481 249.98 183.793 250.311C184.107 250.642 184.509 250.808 184.996 250.808C185.287 250.808 185.584 250.734 185.886 250.584C186.191 250.435 186.446 250.207 186.651 249.898C186.86 249.59 186.964 249.197 186.964 248.72ZM193.608 244.206V245.2H189.65V244.206H193.608ZM190.804 242.376H191.977V249.655C191.977 249.986 192.025 250.235 192.121 250.401C192.221 250.563 192.347 250.672 192.499 250.729C192.655 250.782 192.819 250.808 192.991 250.808C193.121 250.808 193.227 250.802 193.309 250.788C193.392 250.772 193.459 250.758 193.508 250.749L193.747 251.803C193.667 251.832 193.556 251.862 193.414 251.892C193.271 251.925 193.091 251.942 192.872 251.942C192.541 251.942 192.216 251.87 191.898 251.728C191.583 251.585 191.321 251.368 191.112 251.077C190.907 250.785 190.804 250.417 190.804 249.973V242.376ZM202.631 244.206V245.2H198.674V244.206H202.631ZM199.827 242.376H201.001V249.655C201.001 249.986 201.049 250.235 201.145 250.401C201.244 250.563 201.37 250.672 201.523 250.729C201.678 250.782 201.842 250.808 202.015 250.808C202.144 250.808 202.25 250.802 202.333 250.788C202.416 250.772 202.482 250.758 202.532 250.749L202.77 251.803C202.691 251.832 202.58 251.862 202.437 251.892C202.295 251.925 202.114 251.942 201.895 251.942C201.564 251.942 201.239 251.87 200.921 251.728C200.606 251.585 200.344 251.368 200.135 251.077C199.93 250.785 199.827 250.417 199.827 249.973V242.376ZM207.416 252.001C206.727 252.001 206.122 251.837 205.602 251.509C205.085 251.181 204.68 250.722 204.389 250.132C204.1 249.542 203.956 248.853 203.956 248.064C203.956 247.268 204.1 246.574 204.389 245.981C204.68 245.388 205.085 244.927 205.602 244.599C206.122 244.271 206.727 244.106 207.416 244.106C208.106 244.106 208.709 244.271 209.226 244.599C209.746 244.927 210.151 245.388 210.439 245.981C210.731 246.574 210.877 247.268 210.877 248.064C210.877 248.853 210.731 249.542 210.439 250.132C210.151 250.722 209.746 251.181 209.226 251.509C208.709 251.837 208.106 252.001 207.416 252.001ZM207.416 250.947C207.94 250.947 208.371 250.813 208.709 250.545C209.047 250.276 209.297 249.923 209.46 249.486C209.622 249.048 209.703 248.574 209.703 248.064C209.703 247.553 209.622 247.078 209.46 246.637C209.297 246.196 209.047 245.84 208.709 245.568C208.371 245.296 207.94 245.16 207.416 245.16C206.893 245.16 206.462 245.296 206.124 245.568C205.786 245.84 205.535 246.196 205.373 246.637C205.211 247.078 205.129 247.553 205.129 248.064C205.129 248.574 205.211 249.048 205.373 249.486C205.535 249.923 205.786 250.276 206.124 250.545C206.462 250.813 206.893 250.947 207.416 250.947ZM216.764 251.842V241.66H222.869V242.754H217.997V246.195H222.412V247.288H217.997V251.842H216.764ZM224.74 251.842V244.206H225.873V245.359H225.953C226.092 244.981 226.344 244.675 226.709 244.44C227.073 244.204 227.484 244.087 227.942 244.087C228.028 244.087 228.135 244.088 228.265 244.092C228.394 244.095 228.492 244.1 228.558 244.106V245.3C228.518 245.29 228.427 245.275 228.285 245.255C228.145 245.232 227.998 245.22 227.842 245.22C227.471 245.22 227.14 245.298 226.848 245.454C226.559 245.606 226.331 245.818 226.162 246.09C225.996 246.359 225.913 246.665 225.913 247.01V251.842H224.74ZM232.918 252.001C232.182 252.001 231.548 251.839 231.014 251.514C230.484 251.186 230.074 250.729 229.786 250.142C229.501 249.552 229.358 248.866 229.358 248.084C229.358 247.302 229.501 246.612 229.786 246.016C230.074 245.416 230.475 244.948 230.989 244.614C231.506 244.276 232.109 244.106 232.799 244.106C233.197 244.106 233.589 244.173 233.977 244.305C234.365 244.438 234.718 244.653 235.036 244.952C235.354 245.247 235.608 245.638 235.797 246.125C235.986 246.612 236.08 247.212 236.08 247.925V248.422H230.194V247.408H234.887C234.887 246.977 234.801 246.592 234.628 246.254C234.459 245.916 234.217 245.649 233.903 245.454C233.591 245.258 233.223 245.16 232.799 245.16C232.331 245.16 231.927 245.276 231.586 245.508C231.248 245.737 230.988 246.035 230.805 246.403C230.623 246.771 230.532 247.166 230.532 247.587V248.263C230.532 248.839 230.631 249.328 230.83 249.729C231.032 250.127 231.312 250.43 231.67 250.639C232.028 250.845 232.444 250.947 232.918 250.947C233.226 250.947 233.505 250.904 233.753 250.818C234.005 250.729 234.222 250.596 234.405 250.42C234.587 250.241 234.728 250.019 234.827 249.754L235.961 250.072C235.841 250.457 235.641 250.795 235.359 251.087C235.077 251.375 234.729 251.6 234.315 251.763C233.901 251.922 233.435 252.001 232.918 252.001ZM241.067 252.001C240.331 252.001 239.696 251.839 239.162 251.514C238.632 251.186 238.223 250.729 237.934 250.142C237.649 249.552 237.507 248.866 237.507 248.084C237.507 247.302 237.649 246.612 237.934 246.016C238.223 245.416 238.624 244.948 239.138 244.614C239.655 244.276 240.258 244.106 240.947 244.106C241.345 244.106 241.738 244.173 242.126 244.305C242.513 244.438 242.866 244.653 243.184 244.952C243.503 245.247 243.756 245.638 243.945 246.125C244.134 246.612 244.229 247.212 244.229 247.925V248.422H238.342V247.408H243.035C243.035 246.977 242.949 246.592 242.777 246.254C242.608 245.916 242.366 245.649 242.051 245.454C241.739 245.258 241.372 245.16 240.947 245.16C240.48 245.16 240.076 245.276 239.734 245.508C239.396 245.737 239.136 246.035 238.954 246.403C238.771 246.771 238.68 247.166 238.68 247.587V248.263C238.68 248.839 238.78 249.328 238.979 249.729C239.181 250.127 239.461 250.43 239.819 250.639C240.177 250.845 240.593 250.947 241.067 250.947C241.375 250.947 241.653 250.904 241.902 250.818C242.154 250.729 242.371 250.596 242.553 250.42C242.735 250.241 242.876 250.019 242.976 249.754L244.109 250.072C243.99 250.457 243.789 250.795 243.508 251.087C243.226 251.375 242.878 251.6 242.464 251.763C242.049 251.922 241.584 252.001 241.067 252.001ZM255.678 244.206C255.618 243.702 255.376 243.311 254.952 243.033C254.528 242.754 254.008 242.615 253.391 242.615C252.94 242.615 252.546 242.688 252.208 242.834C251.873 242.98 251.611 243.18 251.422 243.435C251.237 243.691 251.144 243.981 251.144 244.305C251.144 244.577 251.209 244.811 251.338 245.006C251.47 245.199 251.64 245.359 251.845 245.489C252.05 245.615 252.266 245.719 252.491 245.802C252.717 245.881 252.924 245.946 253.113 245.996L254.147 246.274C254.412 246.344 254.707 246.44 255.032 246.562C255.36 246.685 255.673 246.852 255.971 247.065C256.273 247.273 256.522 247.542 256.717 247.87C256.913 248.198 257.01 248.601 257.01 249.078C257.01 249.628 256.866 250.125 256.578 250.57C256.293 251.014 255.875 251.367 255.325 251.629C254.778 251.89 254.114 252.021 253.331 252.021C252.602 252.021 251.971 251.904 251.437 251.668C250.907 251.433 250.489 251.105 250.184 250.684C249.883 250.263 249.712 249.774 249.672 249.217H250.945C250.978 249.602 251.108 249.92 251.333 250.172C251.562 250.42 251.85 250.606 252.198 250.729C252.549 250.848 252.927 250.908 253.331 250.908C253.802 250.908 254.225 250.831 254.599 250.679C254.974 250.523 255.27 250.308 255.489 250.033C255.708 249.754 255.817 249.429 255.817 249.058C255.817 248.72 255.723 248.445 255.534 248.233C255.345 248.021 255.096 247.848 254.788 247.716C254.48 247.583 254.147 247.467 253.789 247.368L252.536 247.01C251.741 246.781 251.111 246.455 250.647 246.03C250.183 245.606 249.951 245.051 249.951 244.365C249.951 243.795 250.105 243.298 250.413 242.874C250.725 242.446 251.142 242.115 251.666 241.879C252.193 241.641 252.781 241.521 253.431 241.521C254.087 241.521 254.671 241.639 255.181 241.874C255.691 242.106 256.096 242.424 256.394 242.829C256.696 243.233 256.855 243.692 256.871 244.206H255.678ZM260.609 251.842L258.282 244.206H259.515L261.165 250.053H261.245L262.876 244.206H264.129L265.739 250.033H265.819L267.469 244.206H268.702L266.376 251.842H265.222L263.552 245.976H263.433L261.762 251.842H260.609ZM272.501 252.021C272.017 252.021 271.578 251.93 271.183 251.748C270.789 251.562 270.476 251.295 270.244 250.947C270.012 250.596 269.896 250.172 269.896 249.675C269.896 249.237 269.982 248.883 270.154 248.611C270.326 248.336 270.557 248.12 270.845 247.964C271.134 247.809 271.452 247.693 271.8 247.616C272.151 247.537 272.504 247.474 272.859 247.428C273.323 247.368 273.699 247.323 273.987 247.293C274.279 247.26 274.491 247.205 274.624 247.129C274.759 247.053 274.827 246.92 274.827 246.731V246.692C274.827 246.201 274.693 245.82 274.425 245.548C274.16 245.276 273.757 245.141 273.217 245.141C272.656 245.141 272.217 245.263 271.899 245.508C271.581 245.754 271.357 246.016 271.228 246.294L270.114 245.896C270.313 245.432 270.578 245.071 270.91 244.812C271.245 244.551 271.609 244.368 272.004 244.266C272.401 244.16 272.792 244.106 273.177 244.106C273.422 244.106 273.704 244.136 274.022 244.196C274.344 244.252 274.653 244.37 274.952 244.549C275.253 244.728 275.504 244.998 275.702 245.359C275.901 245.721 276.001 246.205 276.001 246.811V251.842H274.827V250.808H274.768C274.688 250.974 274.556 251.151 274.37 251.34C274.184 251.529 273.938 251.69 273.629 251.822C273.321 251.955 272.945 252.021 272.501 252.021ZM272.68 250.967C273.144 250.967 273.535 250.876 273.853 250.694C274.174 250.512 274.416 250.276 274.579 249.988C274.745 249.7 274.827 249.396 274.827 249.078V248.004C274.778 248.064 274.668 248.119 274.499 248.168C274.334 248.215 274.141 248.256 273.923 248.293C273.707 248.326 273.497 248.356 273.291 248.382C273.089 248.405 272.925 248.425 272.799 248.442C272.494 248.481 272.209 248.546 271.944 248.636C271.682 248.722 271.47 248.853 271.308 249.028C271.148 249.201 271.069 249.436 271.069 249.734C271.069 250.142 271.22 250.45 271.521 250.659C271.826 250.865 272.212 250.967 272.68 250.967ZM278.142 254.706V244.206H279.276V245.419H279.415C279.501 245.286 279.62 245.117 279.773 244.912C279.929 244.703 280.151 244.517 280.439 244.355C280.731 244.189 281.125 244.106 281.622 244.106C282.265 244.106 282.832 244.267 283.323 244.589C283.813 244.91 284.196 245.366 284.471 245.956C284.746 246.546 284.884 247.242 284.884 248.044C284.884 248.853 284.746 249.554 284.471 250.147C284.196 250.737 283.815 251.194 283.328 251.519C282.84 251.841 282.279 252.001 281.642 252.001C281.152 252.001 280.759 251.92 280.464 251.758C280.169 251.592 279.942 251.405 279.783 251.196C279.624 250.984 279.501 250.808 279.415 250.669H279.316V254.706H278.142ZM279.296 248.024C279.296 248.601 279.38 249.11 279.549 249.55C279.718 249.988 279.965 250.331 280.29 250.58C280.615 250.825 281.012 250.947 281.483 250.947C281.974 250.947 282.383 250.818 282.711 250.56C283.043 250.298 283.291 249.946 283.457 249.506C283.626 249.062 283.71 248.568 283.71 248.024C283.71 247.487 283.628 247.003 283.462 246.572C283.299 246.138 283.052 245.795 282.721 245.543C282.393 245.288 281.98 245.16 281.483 245.16C281.006 245.16 280.605 245.281 280.28 245.523C279.955 245.762 279.71 246.097 279.544 246.528C279.378 246.955 279.296 247.454 279.296 248.024ZM292.083 245.916L291.029 246.214C290.962 246.039 290.865 245.868 290.735 245.702C290.609 245.533 290.437 245.394 290.218 245.285C289.999 245.175 289.719 245.121 289.378 245.121C288.911 245.121 288.521 245.228 288.21 245.444C287.901 245.656 287.747 245.926 287.747 246.254C287.747 246.546 287.853 246.776 288.066 246.945C288.278 247.114 288.609 247.255 289.06 247.368L290.193 247.646C290.876 247.812 291.385 248.066 291.72 248.407C292.054 248.745 292.222 249.181 292.222 249.714C292.222 250.152 292.096 250.543 291.844 250.888C291.595 251.232 291.247 251.504 290.8 251.703C290.352 251.902 289.832 252.001 289.239 252.001C288.46 252.001 287.815 251.832 287.305 251.494C286.794 251.156 286.471 250.662 286.335 250.013L287.449 249.734C287.555 250.145 287.756 250.454 288.051 250.659C288.349 250.865 288.738 250.967 289.219 250.967C289.766 250.967 290.2 250.851 290.521 250.619C290.846 250.384 291.009 250.102 291.009 249.774C291.009 249.509 290.916 249.287 290.73 249.108C290.545 248.926 290.26 248.79 289.875 248.7L288.602 248.402C287.903 248.236 287.389 247.979 287.061 247.631C286.736 247.28 286.574 246.841 286.574 246.314C286.574 245.883 286.695 245.502 286.937 245.17C287.182 244.839 287.515 244.579 287.936 244.39C288.36 244.201 288.841 244.106 289.378 244.106C290.134 244.106 290.727 244.272 291.158 244.604C291.592 244.935 291.9 245.373 292.083 245.916ZM144.956 272.021C144.472 272.021 144.033 271.93 143.638 271.748C143.244 271.562 142.931 271.295 142.699 270.947C142.467 270.596 142.351 270.172 142.351 269.675C142.351 269.237 142.437 268.883 142.609 268.611C142.782 268.336 143.012 268.12 143.3 267.964C143.589 267.809 143.907 267.693 144.255 267.616C144.606 267.537 144.959 267.474 145.314 267.428C145.778 267.368 146.154 267.323 146.442 267.293C146.734 267.26 146.946 267.205 147.079 267.129C147.215 267.053 147.282 266.92 147.282 266.731V266.692C147.282 266.201 147.148 265.82 146.88 265.548C146.615 265.276 146.212 265.141 145.672 265.141C145.112 265.141 144.672 265.263 144.354 265.508C144.036 265.754 143.812 266.016 143.683 266.294L142.569 265.896C142.768 265.432 143.033 265.071 143.365 264.812C143.7 264.551 144.064 264.368 144.459 264.266C144.856 264.16 145.247 264.106 145.632 264.106C145.877 264.106 146.159 264.136 146.477 264.196C146.799 264.252 147.108 264.37 147.407 264.549C147.708 264.728 147.959 264.998 148.157 265.359C148.356 265.721 148.456 266.205 148.456 266.811V271.842H147.282V270.808H147.223C147.143 270.974 147.011 271.151 146.825 271.34C146.64 271.529 146.393 271.69 146.084 271.822C145.776 271.955 145.4 272.021 144.956 272.021ZM145.135 270.967C145.599 270.967 145.99 270.876 146.308 270.694C146.63 270.512 146.872 270.276 147.034 269.988C147.2 269.7 147.282 269.396 147.282 269.078V268.004C147.233 268.064 147.123 268.119 146.954 268.168C146.789 268.215 146.596 268.256 146.378 268.293C146.162 268.326 145.952 268.356 145.746 268.382C145.544 268.405 145.38 268.425 145.254 268.442C144.949 268.481 144.664 268.546 144.399 268.636C144.137 268.722 143.925 268.853 143.763 269.028C143.604 269.201 143.524 269.436 143.524 269.734C143.524 270.142 143.675 270.45 143.976 270.659C144.281 270.865 144.667 270.967 145.135 270.967ZM151.771 267.249V271.842H150.597V264.206H151.731V265.399H151.83C152.009 265.011 152.281 264.7 152.646 264.464C153.01 264.226 153.481 264.106 154.058 264.106C154.575 264.106 155.027 264.213 155.415 264.425C155.803 264.633 156.104 264.952 156.32 265.379C156.535 265.803 156.643 266.34 156.643 266.99V271.842H155.469V267.07C155.469 266.47 155.314 266.002 155.002 265.668C154.691 265.33 154.263 265.16 153.719 265.16C153.345 265.16 153.01 265.242 152.715 265.404C152.424 265.566 152.193 265.803 152.024 266.115C151.855 266.427 151.771 266.804 151.771 267.249ZM161.67 272.001C161.034 272.001 160.472 271.841 159.985 271.519C159.498 271.194 159.117 270.737 158.841 270.147C158.566 269.554 158.429 268.853 158.429 268.044C158.429 267.242 158.566 266.546 158.841 265.956C159.117 265.366 159.499 264.91 159.99 264.589C160.48 264.267 161.047 264.106 161.69 264.106C162.187 264.106 162.58 264.189 162.868 264.355C163.16 264.517 163.382 264.703 163.535 264.912C163.69 265.117 163.811 265.286 163.898 265.419H163.997V261.66H165.17V271.842H164.037V270.669H163.898C163.811 270.808 163.689 270.984 163.53 271.196C163.371 271.405 163.144 271.592 162.849 271.758C162.554 271.92 162.161 272.001 161.67 272.001ZM161.829 270.947C162.3 270.947 162.698 270.825 163.023 270.58C163.347 270.331 163.594 269.988 163.763 269.55C163.932 269.11 164.017 268.601 164.017 268.024C164.017 267.454 163.934 266.955 163.768 266.528C163.603 266.097 163.357 265.762 163.032 265.523C162.708 265.281 162.307 265.16 161.829 265.16C161.332 265.16 160.918 265.288 160.586 265.543C160.258 265.795 160.011 266.138 159.846 266.572C159.683 267.003 159.602 267.487 159.602 268.024C159.602 268.568 159.685 269.062 159.851 269.506C160.02 269.946 160.268 270.298 160.596 270.56C160.928 270.818 161.339 270.947 161.829 270.947ZM177.147 264.206C177.087 263.702 176.845 263.311 176.421 263.033C175.997 262.754 175.476 262.615 174.86 262.615C174.409 262.615 174.015 262.688 173.677 262.834C173.342 262.98 173.08 263.18 172.891 263.435C172.706 263.691 172.613 263.981 172.613 264.305C172.613 264.577 172.677 264.811 172.807 265.006C172.939 265.199 173.108 265.359 173.314 265.489C173.519 265.615 173.735 265.719 173.96 265.802C174.185 265.881 174.393 265.946 174.581 265.996L175.616 266.274C175.881 266.344 176.176 266.44 176.501 266.562C176.829 266.685 177.142 266.852 177.44 267.065C177.742 267.273 177.99 267.542 178.186 267.87C178.381 268.198 178.479 268.601 178.479 269.078C178.479 269.628 178.335 270.125 178.047 270.57C177.762 271.014 177.344 271.367 176.794 271.629C176.247 271.89 175.582 272.021 174.8 272.021C174.071 272.021 173.44 271.904 172.906 271.668C172.376 271.433 171.958 271.105 171.653 270.684C171.352 270.263 171.181 269.774 171.141 269.217H172.414C172.447 269.602 172.576 269.92 172.802 270.172C173.03 270.42 173.319 270.606 173.667 270.729C174.018 270.848 174.396 270.908 174.8 270.908C175.271 270.908 175.693 270.831 176.068 270.679C176.443 270.523 176.739 270.308 176.958 270.033C177.177 269.754 177.286 269.429 177.286 269.058C177.286 268.72 177.192 268.445 177.003 268.233C176.814 268.021 176.565 267.848 176.257 267.716C175.949 267.583 175.616 267.467 175.258 267.368L174.005 267.01C173.209 266.781 172.58 266.455 172.116 266.03C171.652 265.606 171.42 265.051 171.42 264.365C171.42 263.795 171.574 263.298 171.882 262.874C172.193 262.446 172.611 262.115 173.135 261.879C173.662 261.641 174.25 261.521 174.9 261.521C175.556 261.521 176.139 261.639 176.65 261.874C177.16 262.106 177.564 262.424 177.863 262.829C178.164 263.233 178.323 263.692 178.34 264.206H177.147ZM182.077 271.842L179.751 264.206H180.984L182.634 270.053H182.714L184.344 264.206H185.597L187.208 270.033H187.288L188.938 264.206H190.171L187.844 271.842H186.691L185.021 265.976H184.901L183.231 271.842H182.077ZM191.722 271.842V264.206H192.896V271.842H191.722ZM192.319 262.933C192.09 262.933 191.893 262.855 191.727 262.7C191.565 262.544 191.484 262.356 191.484 262.138C191.484 261.919 191.565 261.732 191.727 261.576C191.893 261.42 192.09 261.342 192.319 261.342C192.548 261.342 192.743 261.42 192.906 261.576C193.071 261.732 193.154 261.919 193.154 262.138C193.154 262.356 193.071 262.544 192.906 262.7C192.743 262.855 192.548 262.933 192.319 262.933ZM198.445 264.206V265.2H194.329V264.206H198.445ZM195.562 271.842V263.152C195.562 262.714 195.664 262.35 195.87 262.058C196.075 261.767 196.342 261.548 196.67 261.402C196.998 261.256 197.345 261.183 197.709 261.183C197.998 261.183 198.233 261.206 198.415 261.253C198.598 261.299 198.733 261.342 198.823 261.382L198.485 262.396C198.425 262.376 198.342 262.352 198.236 262.322C198.134 262.292 197.998 262.277 197.829 262.277C197.441 262.277 197.161 262.375 196.988 262.57C196.819 262.766 196.735 263.053 196.735 263.43V271.842H195.562ZM203.411 264.206V265.2H199.453V264.206H203.411ZM200.607 262.376H201.78V269.655C201.78 269.986 201.828 270.235 201.924 270.401C202.023 270.563 202.149 270.672 202.302 270.729C202.458 270.782 202.622 270.808 202.794 270.808C202.923 270.808 203.029 270.802 203.112 270.788C203.195 270.772 203.261 270.758 203.311 270.749L203.55 271.803C203.47 271.832 203.359 271.862 203.217 271.892C203.074 271.925 202.893 271.942 202.675 271.942C202.343 271.942 202.018 271.87 201.7 271.728C201.385 271.585 201.124 271.368 200.915 271.077C200.709 270.785 200.607 270.417 200.607 269.973V262.376ZM209.272 271.842V261.66H212.832C213.541 261.66 214.126 261.783 214.587 262.028C215.047 262.27 215.39 262.597 215.616 263.008C215.841 263.415 215.954 263.868 215.954 264.365C215.954 264.803 215.876 265.164 215.72 265.449C215.568 265.734 215.366 265.959 215.114 266.125C214.865 266.291 214.595 266.413 214.303 266.493V266.592C214.615 266.612 214.928 266.722 215.243 266.92C215.558 267.119 215.821 267.404 216.033 267.776C216.246 268.147 216.352 268.601 216.352 269.138C216.352 269.648 216.236 270.107 216.004 270.515C215.772 270.923 215.405 271.246 214.905 271.484C214.404 271.723 213.753 271.842 212.951 271.842H209.272ZM210.505 270.749H212.951C213.756 270.749 214.328 270.593 214.666 270.281C215.008 269.966 215.178 269.585 215.178 269.138C215.178 268.793 215.09 268.475 214.915 268.183C214.739 267.888 214.489 267.653 214.164 267.477C213.839 267.298 213.455 267.209 213.011 267.209H210.505V270.749ZM210.505 266.135H212.792C213.163 266.135 213.498 266.062 213.796 265.916C214.098 265.77 214.336 265.565 214.512 265.3C214.691 265.035 214.781 264.723 214.781 264.365C214.781 263.918 214.625 263.538 214.313 263.227C214.002 262.912 213.508 262.754 212.832 262.754H210.505V266.135ZM218.218 271.842V264.206H219.352V265.359H219.431C219.571 264.981 219.823 264.675 220.187 264.44C220.552 264.204 220.963 264.087 221.42 264.087C221.506 264.087 221.614 264.088 221.743 264.092C221.873 264.095 221.97 264.1 222.037 264.106V265.3C221.997 265.29 221.906 265.275 221.763 265.255C221.624 265.232 221.476 265.22 221.321 265.22C220.949 265.22 220.618 265.298 220.326 265.454C220.038 265.606 219.809 265.818 219.64 266.09C219.475 266.359 219.392 266.665 219.392 267.01V271.842H218.218ZM223.427 271.842V264.206H224.601V271.842H223.427ZM224.024 262.933C223.795 262.933 223.598 262.855 223.432 262.7C223.27 262.544 223.189 262.356 223.189 262.138C223.189 261.919 223.27 261.732 223.432 261.576C223.598 261.42 223.795 261.342 224.024 261.342C224.253 261.342 224.448 261.42 224.611 261.576C224.776 261.732 224.859 261.919 224.859 262.138C224.859 262.356 224.776 262.544 224.611 262.7C224.448 262.855 224.253 262.933 224.024 262.933ZM229.633 272.001C228.997 272.001 228.435 271.841 227.948 271.519C227.461 271.194 227.079 270.737 226.804 270.147C226.529 269.554 226.392 268.853 226.392 268.044C226.392 267.242 226.529 266.546 226.804 265.956C227.079 265.366 227.462 264.91 227.953 264.589C228.443 264.267 229.01 264.106 229.653 264.106C230.15 264.106 230.543 264.189 230.831 264.355C231.123 264.517 231.345 264.703 231.498 264.912C231.653 265.117 231.774 265.286 231.86 265.419H231.96V261.66H233.133V271.842H232V270.669H231.86C231.774 270.808 231.652 270.984 231.493 271.196C231.333 271.405 231.106 271.592 230.811 271.758C230.516 271.92 230.124 272.001 229.633 272.001ZM229.792 270.947C230.263 270.947 230.661 270.825 230.985 270.58C231.31 270.331 231.557 269.988 231.726 269.55C231.895 269.11 231.98 268.601 231.98 268.024C231.98 267.454 231.897 266.955 231.731 266.528C231.565 266.097 231.32 265.762 230.995 265.523C230.671 265.281 230.27 265.16 229.792 265.16C229.295 265.16 228.881 265.288 228.549 265.543C228.221 265.795 227.974 266.138 227.809 266.572C227.646 267.003 227.565 267.487 227.565 268.024C227.565 268.568 227.648 269.062 227.814 269.506C227.983 269.946 228.231 270.298 228.559 270.56C228.891 270.818 229.302 270.947 229.792 270.947ZM238.527 274.865C237.961 274.865 237.473 274.792 237.066 274.646C236.658 274.504 236.318 274.315 236.047 274.08C235.778 273.847 235.564 273.599 235.405 273.334L236.34 272.678C236.446 272.817 236.58 272.976 236.743 273.155C236.905 273.337 237.127 273.495 237.409 273.627C237.694 273.763 238.067 273.831 238.527 273.831C239.144 273.831 239.653 273.682 240.054 273.383C240.455 273.085 240.655 272.618 240.655 271.981V270.43H240.556C240.47 270.57 240.347 270.742 240.188 270.947C240.032 271.15 239.807 271.33 239.512 271.489C239.22 271.645 238.826 271.723 238.328 271.723C237.712 271.723 237.158 271.577 236.668 271.285C236.181 270.994 235.795 270.57 235.51 270.013C235.228 269.456 235.087 268.78 235.087 267.984C235.087 267.202 235.225 266.521 235.5 265.941C235.775 265.358 236.158 264.907 236.648 264.589C237.139 264.267 237.705 264.106 238.348 264.106C238.846 264.106 239.24 264.189 239.532 264.355C239.827 264.517 240.052 264.703 240.208 264.912C240.367 265.117 240.489 265.286 240.576 265.419H240.695V264.206H241.828V272.061C241.828 272.717 241.679 273.251 241.381 273.662C241.086 274.076 240.688 274.379 240.188 274.572C239.691 274.767 239.137 274.865 238.527 274.865ZM238.488 270.669C238.958 270.669 239.356 270.561 239.681 270.346C240.006 270.13 240.252 269.821 240.422 269.416C240.591 269.012 240.675 268.528 240.675 267.964C240.675 267.414 240.592 266.929 240.426 266.508C240.261 266.087 240.016 265.757 239.691 265.518C239.366 265.28 238.965 265.16 238.488 265.16C237.99 265.16 237.576 265.286 237.245 265.538C236.917 265.79 236.67 266.128 236.504 266.553C236.342 266.977 236.26 267.447 236.26 267.964C236.26 268.495 236.343 268.964 236.509 269.371C236.678 269.776 236.926 270.094 237.255 270.326C237.586 270.555 237.997 270.669 238.488 270.669ZM247.178 272.001C246.442 272.001 245.807 271.839 245.274 271.514C244.743 271.186 244.334 270.729 244.046 270.142C243.761 269.552 243.618 268.866 243.618 268.084C243.618 267.302 243.761 266.612 244.046 266.016C244.334 265.416 244.735 264.948 245.249 264.614C245.766 264.276 246.369 264.106 247.059 264.106C247.456 264.106 247.849 264.173 248.237 264.305C248.625 264.438 248.978 264.653 249.296 264.952C249.614 265.247 249.868 265.638 250.056 266.125C250.245 266.612 250.34 267.212 250.34 267.925V268.422H244.453V267.408H249.147C249.147 266.977 249.06 266.592 248.888 266.254C248.719 265.916 248.477 265.649 248.162 265.454C247.851 265.258 247.483 265.16 247.059 265.16C246.591 265.16 246.187 265.276 245.846 265.508C245.507 265.737 245.247 266.035 245.065 266.403C244.883 266.771 244.792 267.166 244.792 267.587V268.263C244.792 268.839 244.891 269.328 245.09 269.729C245.292 270.127 245.572 270.43 245.93 270.639C246.288 270.845 246.704 270.947 247.178 270.947C247.486 270.947 247.765 270.904 248.013 270.818C248.265 270.729 248.482 270.596 248.664 270.42C248.847 270.241 248.988 270.019 249.087 269.754L250.221 270.072C250.101 270.457 249.901 270.795 249.619 271.087C249.337 271.375 248.989 271.6 248.575 271.763C248.161 271.922 247.695 272.001 247.178 272.001ZM257.534 265.916L256.48 266.214C256.413 266.039 256.316 265.868 256.186 265.702C256.06 265.533 255.888 265.394 255.669 265.285C255.451 265.175 255.171 265.121 254.829 265.121C254.362 265.121 253.972 265.228 253.661 265.444C253.353 265.656 253.199 265.926 253.199 266.254C253.199 266.546 253.305 266.776 253.517 266.945C253.729 267.114 254.06 267.255 254.511 267.368L255.645 267.646C256.327 267.812 256.836 268.066 257.171 268.407C257.506 268.745 257.673 269.181 257.673 269.714C257.673 270.152 257.547 270.543 257.295 270.888C257.047 271.232 256.699 271.504 256.251 271.703C255.804 271.902 255.283 272.001 254.69 272.001C253.911 272.001 253.266 271.832 252.756 271.494C252.246 271.156 251.922 270.662 251.787 270.013L252.9 269.734C253.006 270.145 253.207 270.454 253.502 270.659C253.8 270.865 254.19 270.967 254.67 270.967C255.217 270.967 255.651 270.851 255.973 270.619C256.297 270.384 256.46 270.102 256.46 269.774C256.46 269.509 256.367 269.287 256.181 269.108C255.996 268.926 255.711 268.79 255.326 268.7L254.054 268.402C253.354 268.236 252.841 267.979 252.512 267.631C252.188 267.28 252.025 266.841 252.025 266.314C252.025 265.883 252.146 265.502 252.388 265.17C252.633 264.839 252.967 264.579 253.387 264.39C253.812 264.201 254.292 264.106 254.829 264.106C255.585 264.106 256.178 264.272 256.609 264.604C257.043 264.935 257.351 265.373 257.534 265.916Z" fill="#CCCCCC"/>
<path d="M87.6761 292.755V291.661H95.3125V292.755H92.1108V301.843H90.8778V292.755H87.6761ZM97.0563 301.843V294.206H98.2296V301.843H97.0563ZM97.6529 292.934C97.4242 292.934 97.227 292.856 97.0613 292.7C96.8989 292.544 96.8176 292.357 96.8176 292.138C96.8176 291.919 96.8989 291.732 97.0613 291.576C97.227 291.421 97.4242 291.343 97.6529 291.343C97.8816 291.343 98.0771 291.421 98.2395 291.576C98.4052 291.732 98.4881 291.919 98.4881 292.138C98.4881 292.357 98.4052 292.544 98.2395 292.7C98.0771 292.856 97.8816 292.934 97.6529 292.934ZM100.379 304.706V294.206H101.512V295.419H101.651C101.737 295.287 101.857 295.118 102.009 294.912C102.165 294.704 102.387 294.518 102.675 294.356C102.967 294.19 103.362 294.107 103.859 294.107C104.502 294.107 105.068 294.268 105.559 294.589C106.049 294.911 106.432 295.366 106.707 295.956C106.982 296.546 107.12 297.242 107.12 298.044C107.12 298.853 106.982 299.554 106.707 300.147C106.432 300.737 106.051 301.195 105.564 301.52C105.077 301.841 104.515 302.002 103.879 302.002C103.388 302.002 102.995 301.921 102.7 301.758C102.405 301.593 102.178 301.405 102.019 301.196C101.86 300.984 101.737 300.809 101.651 300.669H101.552V304.706H100.379ZM101.532 298.025C101.532 298.601 101.616 299.11 101.786 299.551C101.955 299.988 102.201 300.331 102.526 300.58C102.851 300.825 103.249 300.948 103.719 300.948C104.21 300.948 104.619 300.819 104.947 300.56C105.279 300.298 105.527 299.947 105.693 299.506C105.862 299.062 105.947 298.568 105.947 298.025C105.947 297.488 105.864 297.004 105.698 296.573C105.536 296.139 105.289 295.796 104.957 295.544C104.629 295.289 104.217 295.161 103.719 295.161C103.242 295.161 102.841 295.282 102.516 295.524C102.192 295.763 101.946 296.097 101.781 296.528C101.615 296.956 101.532 297.455 101.532 298.025ZM109.765 301.922C109.52 301.922 109.309 301.834 109.134 301.659C108.958 301.483 108.87 301.273 108.87 301.027C108.87 300.782 108.958 300.572 109.134 300.396C109.309 300.22 109.52 300.133 109.765 300.133C110.01 300.133 110.221 300.22 110.396 300.396C110.572 300.572 110.66 300.782 110.66 301.027C110.66 301.19 110.618 301.339 110.536 301.475C110.456 301.611 110.348 301.72 110.212 301.803C110.08 301.883 109.931 301.922 109.765 301.922ZM109.765 296.255C109.52 296.255 109.309 296.167 109.134 295.991C108.958 295.816 108.87 295.605 108.87 295.36C108.87 295.115 108.958 294.904 109.134 294.728C109.309 294.553 109.52 294.465 109.765 294.465C110.01 294.465 110.221 294.553 110.396 294.728C110.572 294.904 110.66 295.115 110.66 295.36C110.66 295.522 110.618 295.671 110.536 295.807C110.456 295.943 110.348 296.053 110.212 296.135C110.08 296.215 109.931 296.255 109.765 296.255ZM119.805 302.002C119.116 302.002 118.511 301.838 117.99 301.51C117.473 301.182 117.069 300.723 116.777 300.133C116.489 299.543 116.345 298.853 116.345 298.064C116.345 297.269 116.489 296.575 116.777 295.981C117.069 295.388 117.473 294.927 117.99 294.599C118.511 294.271 119.116 294.107 119.805 294.107C120.494 294.107 121.098 294.271 121.615 294.599C122.135 294.927 122.539 295.388 122.828 295.981C123.119 296.575 123.265 297.269 123.265 298.064C123.265 298.853 123.119 299.543 122.828 300.133C122.539 300.723 122.135 301.182 121.615 301.51C121.098 301.838 120.494 302.002 119.805 302.002ZM119.805 300.948C120.329 300.948 120.76 300.814 121.098 300.545C121.436 300.277 121.686 299.924 121.848 299.486C122.011 299.049 122.092 298.575 122.092 298.064C122.092 297.554 122.011 297.078 121.848 296.638C121.686 296.197 121.436 295.84 121.098 295.569C120.76 295.297 120.329 295.161 119.805 295.161C119.281 295.161 118.85 295.297 118.512 295.569C118.174 295.84 117.924 296.197 117.762 296.638C117.599 297.078 117.518 297.554 117.518 298.064C117.518 298.575 117.599 299.049 117.762 299.486C117.924 299.924 118.174 300.277 118.512 300.545C118.85 300.814 119.281 300.948 119.805 300.948ZM125.056 304.706V294.206H126.19V295.419H126.329C126.415 295.287 126.535 295.118 126.687 294.912C126.843 294.704 127.065 294.518 127.353 294.356C127.645 294.19 128.039 294.107 128.536 294.107C129.179 294.107 129.746 294.268 130.237 294.589C130.727 294.911 131.11 295.366 131.385 295.956C131.66 296.546 131.798 297.242 131.798 298.044C131.798 298.853 131.66 299.554 131.385 300.147C131.11 300.737 130.729 301.195 130.242 301.52C129.754 301.841 129.193 302.002 128.556 302.002C128.066 302.002 127.673 301.921 127.378 301.758C127.083 301.593 126.856 301.405 126.697 301.196C126.538 300.984 126.415 300.809 126.329 300.669H126.23V304.706H125.056ZM126.21 298.025C126.21 298.601 126.294 299.11 126.463 299.551C126.632 299.988 126.879 300.331 127.204 300.58C127.529 300.825 127.927 300.948 128.397 300.948C128.888 300.948 129.297 300.819 129.625 300.56C129.957 300.298 130.205 299.947 130.371 299.506C130.54 299.062 130.624 298.568 130.624 298.025C130.624 297.488 130.542 297.004 130.376 296.573C130.213 296.139 129.967 295.796 129.635 295.544C129.307 295.289 128.894 295.161 128.397 295.161C127.92 295.161 127.519 295.282 127.194 295.524C126.869 295.763 126.624 296.097 126.458 296.528C126.293 296.956 126.21 297.455 126.21 298.025ZM136.789 302.002C136.053 302.002 135.419 301.839 134.885 301.515C134.355 301.187 133.945 300.729 133.657 300.142C133.372 299.553 133.23 298.866 133.23 298.084C133.23 297.302 133.372 296.613 133.657 296.016C133.945 295.416 134.347 294.949 134.86 294.614C135.377 294.276 135.981 294.107 136.67 294.107C137.068 294.107 137.46 294.173 137.848 294.306C138.236 294.438 138.589 294.654 138.907 294.952C139.225 295.247 139.479 295.638 139.668 296.125C139.857 296.613 139.951 297.213 139.951 297.925V298.422H134.065V297.408H138.758C138.758 296.977 138.672 296.593 138.499 296.255C138.33 295.917 138.088 295.65 137.774 295.454C137.462 295.259 137.094 295.161 136.67 295.161C136.203 295.161 135.798 295.277 135.457 295.509C135.119 295.738 134.859 296.036 134.676 296.404C134.494 296.772 134.403 297.166 134.403 297.587V298.263C134.403 298.84 134.502 299.329 134.701 299.73C134.903 300.128 135.183 300.431 135.541 300.64C135.899 300.845 136.315 300.948 136.789 300.948C137.097 300.948 137.376 300.905 137.624 300.819C137.876 300.729 138.093 300.597 138.276 300.421C138.458 300.242 138.599 300.02 138.698 299.755L139.832 300.073C139.713 300.457 139.512 300.795 139.23 301.087C138.949 301.375 138.601 301.601 138.186 301.763C137.772 301.922 137.306 302.002 136.789 302.002ZM142.909 297.249V301.843H141.736V294.206H142.869V295.4H142.969C143.148 295.012 143.42 294.7 143.784 294.465C144.149 294.226 144.619 294.107 145.196 294.107C145.713 294.107 146.166 294.213 146.553 294.425C146.941 294.634 147.243 294.952 147.458 295.38C147.674 295.804 147.781 296.341 147.781 296.991V301.843H146.608V297.07C146.608 296.47 146.452 296.003 146.141 295.668C145.829 295.33 145.402 295.161 144.858 295.161C144.484 295.161 144.149 295.242 143.854 295.405C143.562 295.567 143.332 295.804 143.163 296.116C142.994 296.427 142.909 296.805 142.909 297.249ZM159.272 295.917L158.218 296.215C158.152 296.039 158.054 295.869 157.925 295.703C157.799 295.534 157.626 295.395 157.408 295.285C157.189 295.176 156.909 295.121 156.567 295.121C156.1 295.121 155.711 295.229 155.399 295.444C155.091 295.656 154.937 295.927 154.937 296.255C154.937 296.546 155.043 296.777 155.255 296.946C155.467 297.115 155.799 297.256 156.249 297.368L157.383 297.647C158.066 297.812 158.574 298.066 158.909 298.407C159.244 298.745 159.411 299.181 159.411 299.715C159.411 300.152 159.285 300.544 159.033 300.888C158.785 301.233 158.437 301.505 157.989 301.704C157.542 301.902 157.022 302.002 156.428 302.002C155.649 302.002 155.005 301.833 154.494 301.495C153.984 301.157 153.661 300.663 153.525 300.013L154.638 299.735C154.745 300.146 154.945 300.454 155.24 300.66C155.538 300.865 155.928 300.968 156.408 300.968C156.955 300.968 157.389 300.852 157.711 300.62C158.036 300.384 158.198 300.103 158.198 299.775C158.198 299.509 158.105 299.287 157.92 299.108C157.734 298.926 157.449 298.79 157.065 298.701L155.792 298.402C155.093 298.237 154.579 297.98 154.251 297.632C153.926 297.281 153.763 296.841 153.763 296.314C153.763 295.883 153.884 295.502 154.126 295.171C154.372 294.839 154.705 294.579 155.126 294.39C155.55 294.201 156.031 294.107 156.567 294.107C157.323 294.107 157.916 294.273 158.347 294.604C158.781 294.936 159.09 295.373 159.272 295.917ZM162.907 301.843L160.581 294.206H161.814L163.464 300.053H163.544L165.175 294.206H166.427L168.038 300.033H168.118L169.768 294.206H171.001L168.675 301.843H167.521L165.851 295.976H165.731L164.061 301.843H162.907ZM174.8 302.022C174.316 302.022 173.876 301.931 173.482 301.748C173.088 301.563 172.774 301.296 172.542 300.948C172.31 300.597 172.194 300.172 172.194 299.675C172.194 299.238 172.281 298.883 172.453 298.611C172.625 298.336 172.856 298.121 173.144 297.965C173.432 297.809 173.751 297.693 174.099 297.617C174.45 297.537 174.803 297.474 175.157 297.428C175.622 297.368 175.998 297.324 176.286 297.294C176.578 297.261 176.79 297.206 176.922 297.13C177.058 297.053 177.126 296.921 177.126 296.732V296.692C177.126 296.202 176.992 295.821 176.724 295.549C176.458 295.277 176.056 295.141 175.515 295.141C174.955 295.141 174.516 295.264 174.198 295.509C173.88 295.754 173.656 296.016 173.527 296.294L172.413 295.897C172.612 295.433 172.877 295.071 173.209 294.813C173.543 294.551 173.908 294.369 174.302 294.266C174.7 294.16 175.091 294.107 175.476 294.107C175.721 294.107 176.003 294.137 176.321 294.196C176.642 294.253 176.952 294.37 177.251 294.549C177.552 294.728 177.802 294.999 178.001 295.36C178.2 295.721 178.3 296.205 178.3 296.812V301.843H177.126V300.809H177.067C176.987 300.974 176.854 301.152 176.669 301.341C176.483 301.53 176.236 301.69 175.928 301.823C175.62 301.955 175.244 302.022 174.8 302.022ZM174.979 300.968C175.443 300.968 175.834 300.877 176.152 300.694C176.473 300.512 176.715 300.277 176.878 299.988C177.043 299.7 177.126 299.397 177.126 299.079V298.005C177.077 298.064 176.967 298.119 176.798 298.169C176.632 298.215 176.44 298.257 176.221 298.293C176.006 298.326 175.796 298.356 175.59 298.383C175.388 298.406 175.224 298.426 175.098 298.442C174.793 298.482 174.508 298.547 174.243 298.636C173.981 298.722 173.769 298.853 173.606 299.029C173.447 299.201 173.368 299.437 173.368 299.735C173.368 300.142 173.519 300.451 173.82 300.66C174.125 300.865 174.511 300.968 174.979 300.968ZM180.441 304.706V294.206H181.575V295.419H181.714C181.8 295.287 181.919 295.118 182.072 294.912C182.228 294.704 182.45 294.518 182.738 294.356C183.03 294.19 183.424 294.107 183.921 294.107C184.564 294.107 185.131 294.268 185.621 294.589C186.112 294.911 186.495 295.366 186.77 295.956C187.045 296.546 187.183 297.242 187.183 298.044C187.183 298.853 187.045 299.554 186.77 300.147C186.495 300.737 186.114 301.195 185.626 301.52C185.139 301.841 184.577 302.002 183.941 302.002C183.451 302.002 183.058 301.921 182.763 301.758C182.468 301.593 182.241 301.405 182.082 301.196C181.923 300.984 181.8 300.809 181.714 300.669H181.614V304.706H180.441ZM181.594 298.025C181.594 298.601 181.679 299.11 181.848 299.551C182.017 299.988 182.264 300.331 182.589 300.58C182.914 300.825 183.311 300.948 183.782 300.948C184.272 300.948 184.682 300.819 185.01 300.56C185.341 300.298 185.59 299.947 185.756 299.506C185.925 299.062 186.009 298.568 186.009 298.025C186.009 297.488 185.926 297.004 185.761 296.573C185.598 296.139 185.351 295.796 185.02 295.544C184.692 295.289 184.279 295.161 183.782 295.161C183.305 295.161 182.904 295.282 182.579 295.524C182.254 295.763 182.009 296.097 181.843 296.528C181.677 296.956 181.594 297.455 181.594 298.025ZM194.64 301.843L192.313 294.206H193.546L195.197 300.053H195.276L196.907 294.206H198.16L199.771 300.033H199.85L201.501 294.206H202.734L200.407 301.843H199.254L197.583 295.976H197.464L195.793 301.843H194.64ZM204.285 301.843V294.206H205.458V301.843H204.285ZM204.881 292.934C204.653 292.934 204.455 292.856 204.29 292.7C204.127 292.544 204.046 292.357 204.046 292.138C204.046 291.919 204.127 291.732 204.29 291.576C204.455 291.421 204.653 291.343 204.881 291.343C205.11 291.343 205.306 291.421 205.468 291.576C205.634 291.732 205.717 291.919 205.717 292.138C205.717 292.357 205.634 292.544 205.468 292.7C205.306 292.856 205.11 292.934 204.881 292.934ZM208.78 297.249V301.843H207.607V294.206H208.741V295.4H208.84C209.019 295.012 209.291 294.7 209.655 294.465C210.02 294.226 210.491 294.107 211.067 294.107C211.584 294.107 212.037 294.213 212.425 294.425C212.812 294.634 213.114 294.952 213.329 295.38C213.545 295.804 213.653 296.341 213.653 296.991V301.843H212.479V297.07C212.479 296.47 212.323 296.003 212.012 295.668C211.7 295.33 211.273 295.161 210.729 295.161C210.355 295.161 210.02 295.242 209.725 295.405C209.433 295.567 209.203 295.804 209.034 296.116C208.865 296.427 208.78 296.805 208.78 297.249ZM218.68 302.002C218.044 302.002 217.482 301.841 216.995 301.52C216.507 301.195 216.126 300.737 215.851 300.147C215.576 299.554 215.439 298.853 215.439 298.044C215.439 297.242 215.576 296.546 215.851 295.956C216.126 295.366 216.509 294.911 217 294.589C217.49 294.268 218.057 294.107 218.7 294.107C219.197 294.107 219.59 294.19 219.878 294.356C220.17 294.518 220.392 294.704 220.544 294.912C220.7 295.118 220.821 295.287 220.907 295.419H221.007V291.661H222.18V301.843H221.047V300.669H220.907C220.821 300.809 220.699 300.984 220.539 301.196C220.38 301.405 220.153 301.593 219.858 301.758C219.563 301.921 219.171 302.002 218.68 302.002ZM218.839 300.948C219.31 300.948 219.708 300.825 220.032 300.58C220.357 300.331 220.604 299.988 220.773 299.551C220.942 299.11 221.027 298.601 221.027 298.025C221.027 297.455 220.944 296.956 220.778 296.528C220.612 296.097 220.367 295.763 220.042 295.524C219.717 295.282 219.316 295.161 218.839 295.161C218.342 295.161 217.928 295.289 217.596 295.544C217.268 295.796 217.021 296.139 216.855 296.573C216.693 297.004 216.612 297.488 216.612 298.025C216.612 298.568 216.695 299.062 216.86 299.506C217.029 299.947 217.278 300.298 217.606 300.56C217.938 300.819 218.349 300.948 218.839 300.948ZM227.594 302.002C226.905 302.002 226.3 301.838 225.779 301.51C225.262 301.182 224.858 300.723 224.566 300.133C224.278 299.543 224.134 298.853 224.134 298.064C224.134 297.269 224.278 296.575 224.566 295.981C224.858 295.388 225.262 294.927 225.779 294.599C226.3 294.271 226.905 294.107 227.594 294.107C228.283 294.107 228.887 294.271 229.404 294.599C229.924 294.927 230.328 295.388 230.617 295.981C230.908 296.575 231.054 297.269 231.054 298.064C231.054 298.853 230.908 299.543 230.617 300.133C230.328 300.723 229.924 301.182 229.404 301.51C228.887 301.838 228.283 302.002 227.594 302.002ZM227.594 300.948C228.118 300.948 228.549 300.814 228.887 300.545C229.225 300.277 229.475 299.924 229.637 299.486C229.8 299.049 229.881 298.575 229.881 298.064C229.881 297.554 229.8 297.078 229.637 296.638C229.475 296.197 229.225 295.84 228.887 295.569C228.549 295.297 228.118 295.161 227.594 295.161C227.07 295.161 226.64 295.297 226.301 295.569C225.963 295.84 225.713 296.197 225.551 296.638C225.388 297.078 225.307 297.554 225.307 298.064C225.307 298.575 225.388 299.049 225.551 299.486C225.713 299.924 225.963 300.277 226.301 300.545C226.64 300.814 227.07 300.948 227.594 300.948ZM234.316 301.843L231.989 294.206H233.222L234.873 300.053H234.952L236.583 294.206H237.836L239.446 300.033H239.526L241.176 294.206H242.409L240.083 301.843H238.929L237.259 295.976H237.14L235.469 301.843H234.316ZM249.628 301.843L247.301 294.206H248.534L250.185 300.053H250.265L251.895 294.206H253.148L254.759 300.033H254.838L256.489 294.206H257.722L255.395 301.843H254.242L252.571 295.976H252.452L250.782 301.843H249.628ZM259.273 301.843V294.206H260.446V301.843H259.273ZM259.87 292.934C259.641 292.934 259.444 292.856 259.278 292.7C259.116 292.544 259.034 292.357 259.034 292.138C259.034 291.919 259.116 291.732 259.278 291.576C259.444 291.421 259.641 291.343 259.87 291.343C260.098 291.343 260.294 291.421 260.456 291.576C260.622 291.732 260.705 291.919 260.705 292.138C260.705 292.357 260.622 292.544 260.456 292.7C260.294 292.856 260.098 292.934 259.87 292.934ZM265.916 294.206V295.201H261.959V294.206H265.916ZM263.112 292.377H264.286V299.655C264.286 299.987 264.334 300.235 264.43 300.401C264.529 300.563 264.655 300.673 264.808 300.729C264.963 300.782 265.128 300.809 265.3 300.809C265.429 300.809 265.535 300.802 265.618 300.789C265.701 300.772 265.767 300.759 265.817 300.749L266.056 301.803C265.976 301.833 265.865 301.863 265.722 301.892C265.58 301.926 265.399 301.942 265.181 301.942C264.849 301.942 264.524 301.871 264.206 301.728C263.891 301.586 263.629 301.369 263.421 301.077C263.215 300.785 263.112 300.418 263.112 299.973V292.377ZM269.019 297.249V301.843H267.845V291.661H269.019V295.4H269.118C269.297 295.005 269.566 294.692 269.923 294.46C270.285 294.225 270.765 294.107 271.365 294.107C271.886 294.107 272.341 294.211 272.732 294.42C273.124 294.626 273.427 294.942 273.642 295.37C273.861 295.794 273.97 296.334 273.97 296.991V301.843H272.797V297.07C272.797 296.464 272.64 295.995 272.325 295.663C272.013 295.328 271.581 295.161 271.027 295.161C270.643 295.161 270.298 295.242 269.993 295.405C269.691 295.567 269.453 295.804 269.277 296.116C269.105 296.427 269.019 296.805 269.019 297.249Z" fill="white" fill-opacity="0.4"/>
<path d="M280 292.843C280 290.634 281.791 288.843 284 288.843H291C293.209 288.843 295 290.634 295 292.843V300.843C295 303.052 293.209 304.843 291 304.843H284C281.791 304.843 280 303.052 280 300.843V292.843Z" fill="white" fill-opacity="0.08"/>
<path d="M288.304 293.57H291.706V294.49H288.304V293.57ZM283.297 294.49V293.57H286.17L289.38 299.923H291.706V300.843H288.833L285.626 294.49H283.297Z" fill="white" fill-opacity="0.32"/>
<path d="M280 288.843H295H280ZM295 300.843C295 303.328 292.985 305.343 290.5 305.343H284.5C282.015 305.343 280 303.328 280 300.843C280 302.776 281.791 304.343 284 304.343H291C293.209 304.343 295 302.776 295 300.843ZM280 304.843V288.843V304.843ZM295 288.843V304.843V288.843Z" fill="black"/>
<path d="M299 292.843C299 290.634 300.791 288.843 303 288.843H309C311.209 288.843 313 290.634 313 292.843V300.843C313 303.052 311.209 304.843 309 304.843H303C300.791 304.843 299 303.052 299 300.843V292.843Z" fill="white" fill-opacity="0.08"/>
<path d="M307.548 295.481C307.51 295.144 307.354 294.884 307.079 294.699C306.804 294.512 306.459 294.419 306.042 294.419C305.744 294.419 305.486 294.466 305.268 294.561C305.05 294.653 304.881 294.781 304.76 294.944C304.642 295.105 304.583 295.289 304.583 295.495C304.583 295.668 304.623 295.817 304.703 295.942C304.786 296.068 304.894 296.173 305.027 296.258C305.161 296.341 305.306 296.411 305.46 296.468C305.614 296.522 305.762 296.567 305.904 296.603L306.614 296.787C306.846 296.844 307.084 296.921 307.328 297.018C307.572 297.115 307.798 297.243 308.006 297.402C308.214 297.56 308.382 297.757 308.51 297.991C308.64 298.226 308.706 298.506 308.706 298.833C308.706 299.245 308.599 299.611 308.386 299.93C308.175 300.25 307.869 300.502 307.466 300.687C307.066 300.871 306.582 300.964 306.014 300.964C305.469 300.964 304.998 300.877 304.6 300.704C304.203 300.531 303.891 300.286 303.666 299.969C303.442 299.65 303.317 299.271 303.294 298.833H304.394C304.416 299.096 304.501 299.315 304.65 299.49C304.802 299.663 304.995 299.792 305.229 299.877C305.466 299.96 305.725 300.001 306.007 300.001C306.317 300.001 306.593 299.953 306.834 299.856C307.078 299.756 307.27 299.619 307.409 299.444C307.549 299.266 307.619 299.059 307.619 298.822C307.619 298.607 307.557 298.43 307.434 298.293C307.313 298.156 307.149 298.042 306.941 297.952C306.735 297.862 306.501 297.783 306.241 297.714L305.382 297.48C304.799 297.321 304.338 297.088 303.997 296.78C303.658 296.473 303.489 296.065 303.489 295.559C303.489 295.14 303.603 294.774 303.83 294.461C304.057 294.149 304.365 293.906 304.753 293.733C305.141 293.558 305.579 293.471 306.067 293.471C306.559 293.471 306.994 293.557 307.37 293.73C307.749 293.903 308.047 294.141 308.265 294.444C308.483 294.744 308.597 295.09 308.606 295.481H307.548Z" fill="white" fill-opacity="0.32"/>
<path d="M299 288.843H313H299ZM313 300.843C313 303.328 310.985 305.343 308.5 305.343H303.5C301.015 305.343 299 303.328 299 300.843C299 302.776 300.791 304.343 303 304.343H309C311.209 304.343 313 302.776 313 300.843ZM299 304.843V288.843V304.843ZM313 288.843V304.843V288.843Z" fill="black"/>
<defs>
<radialGradient id="paint0_radial_4321_320473" cx="0" cy="0" r="1" gradientUnits="userSpaceOnUse" gradientTransform="translate(115.883 177.393) rotate(46.1458) scale(33.2876 44.7928)">
<stop stop-color="#D4D3D1"/>
<stop offset="0.875" stop-color="#58534F"/>
<stop offset="1" stop-color="#E7E6E4"/>
</radialGradient>
<linearGradient id="paint1_linear_4321_320473" x1="134.878" y1="184.597" x2="140.101" y2="197.396" gradientUnits="userSpaceOnUse">
<stop offset="0.278534" stop-color="#1D1918"/>
<stop offset="1" stop-color="#1D1918" stop-opacity="0"/>
</linearGradient>
<radialGradient id="paint2_radial_4321_320473" cx="0" cy="0" r="1" gradientUnits="userSpaceOnUse" gradientTransform="translate(128.381 175.341) rotate(46.1458) scale(17.1639 23.0963)">
<stop stop-color="#D4D3D1"/>
<stop offset="0.875" stop-color="#58534F"/>
<stop offset="1" stop-color="#E7E6E4"/>
</radialGradient>
</defs>
</svg>
