<svg width="16" height="16" viewBox="0 0 16 16" fill="none" xmlns="http://www.w3.org/2000/svg">
<path d="M5.49009 8.40932L10.8388 3.06066C11.4245 2.47487 12.3743 2.47487 12.9601 3.06066C13.5459 3.64645 13.5459 4.59619 12.9601 5.18198L7.61141 10.5306C7.00016 11.1419 6.69454 11.4475 6.35536 11.7023C5.86229 12.0727 5.31507 12.3648 4.73298 12.5684C4.33258 12.7085 3.90859 12.7924 3.06061 12.9601L3.06058 12.9602L3.06058 12.9601C3.22837 12.1121 3.31226 11.6882 3.45232 11.2877C3.65594 10.7057 3.94808 10.1584 4.31845 9.66537C4.57322 9.3262 4.87884 9.02057 5.49009 8.40932Z" stroke="#79726C" stroke-width="1.5" stroke-linecap="round" stroke-linejoin="round"/>
<path d="M9.77783 4.12109L11.8992 6.24241" stroke="#79726C" stroke-width="1.5" stroke-linecap="round" stroke-linejoin="round"/>
</svg>
