<svg width="81" height="32" viewBox="0 0 81 32" fill="none" xmlns="http://www.w3.org/2000/svg">
<circle cx="17.8114" cy="11.4718" r="4.83019" fill="white"/>
<path fill-rule="evenodd" clip-rule="evenodd" d="M12.0754 3.92432C5.40631 3.92438 0 9.33073 0 15.9998C0 22.6688 5.40631 28.0752 12.0754 28.0753V3.92432Z" fill="white"/>
<path d="M47.1183 7.96009L47.0898 24.0867H42.8952V21.9162C41.7794 23.4392 40.1097 24.437 37.8536 24.437C33.6305 24.441 30.4907 20.9795 30.4907 16.0234C30.4907 11.0673 33.6875 7.60986 37.821 7.60986C40.1097 7.60986 41.8079 8.66461 42.9237 10.2203V7.96416H47.1183V7.96009ZM42.9237 16.0234C42.9237 13.3845 41.1359 11.5967 38.7903 11.5967C36.4446 11.5967 34.7138 13.3845 34.7138 16.0234C34.7138 18.6623 36.4731 20.4501 38.7903 20.4501C41.1074 20.4501 42.9237 18.6908 42.9237 16.0234Z" fill="white"/>
<path d="M50.415 0H54.6415V24.1509H50.415V0Z" fill="white"/>
<path d="M57.9622 0H62.1886V24.1509H57.9622V0Z" fill="white"/>
<path d="M80.9534 7.95996L70.2185 32.0001H65.7593L70.2185 21.9486L64 7.95996H68.4593L72.4461 17.4038L76.4615 7.95996H80.9493H80.9534Z" fill="white"/>
</svg>
