<svg width="20" height="20" viewBox="0 0 20 20" fill="none" xmlns="http://www.w3.org/2000/svg">
<g id="Group">
<g id="Group_2">
<path id="Vector" d="M17.6457 13.9403C17.1185 14.1301 16.2538 14.3621 15.3048 14.573C14.9673 15.1213 14.3557 15.5853 13.3856 15.7751C13.1536 15.8173 12.9005 15.8384 12.6263 15.8384C11.9515 15.8595 11.1711 15.7962 10.2854 15.7118C10.2221 15.7118 10.1588 15.7118 10.0956 15.6908C9.88467 15.6697 9.69486 15.5009 9.67377 15.29C9.65268 15.0159 9.88467 14.805 10.1377 14.8261C10.201 14.8261 10.2854 14.8472 10.3486 14.8472C11.4875 14.9526 12.542 15.037 13.2169 14.9104C14.4612 14.6784 14.8197 13.9192 14.7353 13.2865C14.6721 12.7593 14.2924 12.2742 13.6597 12.3164C12.774 12.3796 11.7406 12.3164 10.7494 12.232C9.6105 12.1477 8.42947 12.1266 7.58588 12.2109C6.65792 12.3164 4.75984 13.0123 3.09374 14.1301C2.27124 14.6784 1.36437 15.3533 0.816039 15.754C0.541871 15.9649 0.478602 16.3445 0.6895 16.6187L3.11483 19.7611C3.32573 20.0353 3.70535 20.0774 3.97951 19.8665L4.86529 19.1706C5.07619 19.0019 5.35035 18.9597 5.60343 19.044C7.22735 19.5713 8.9778 19.9087 10.1167 19.972C12.6263 20.1407 17.4137 17.1881 18.7846 16.2391C20.1554 15.29 19.1642 13.392 17.6457 13.9403Z" fill="white"/>
<path id="Vector_2" d="M11.4666 10.6504C14.3981 10.6504 16.7812 8.26721 16.7812 5.33573C16.7812 2.40424 14.3981 0 11.4666 0C8.5351 0 6.13086 2.38315 6.13086 5.31464C6.13086 8.24612 8.51401 10.6504 11.4666 10.6504ZM11.0026 2.67841V2.00353C11.0026 1.94026 11.0659 1.87699 11.1291 1.87699H11.7829C11.8462 1.87699 11.9095 1.94026 11.9095 2.00353V2.65732C12.5843 2.6995 13.1116 3.20565 13.1749 3.88053C13.1749 3.96489 13.1116 4.02816 13.0483 4.02816H12.3945C12.3313 4.02816 12.2891 3.98598 12.268 3.92271C12.2258 3.71181 12.036 3.56418 11.8251 3.56418H11.2557C10.9183 3.56418 10.6019 3.81726 10.5597 4.1547C10.5175 4.53431 10.8339 4.87175 11.2135 4.87175H11.6986C12.6054 4.87175 13.3436 5.65207 13.2592 6.58003C13.196 7.29708 12.6054 7.84542 11.9095 7.95087V8.62574C11.9095 8.68901 11.8462 8.75228 11.7829 8.75228H11.1291C11.0659 8.75228 11.0026 8.68901 11.0026 8.62574V7.97196C10.3277 7.92978 9.80049 7.42362 9.73722 6.74875C9.73722 6.66439 9.80049 6.62221 9.86376 6.62221H10.5175C10.5808 6.62221 10.623 6.66439 10.6441 6.72766C10.6863 6.93855 10.8761 7.08618 11.087 7.08618H11.6564C11.9938 7.08618 12.3102 6.83311 12.3524 6.49567C12.3945 6.11605 12.0782 5.77861 11.6986 5.77861H11.2768C10.4543 5.77861 9.73722 5.1881 9.65286 4.3656C9.5685 3.522 10.1801 2.78386 11.0026 2.67841Z" fill="white"/>
</g>
</g>
</svg>
